<mxfile host="app.diagrams.net" modified="2024-04-19T10:13:26.710Z" agent="Mozilla/5.0 (Windows NT 10.0; Win64; x64; rv:124.0) Gecko/20100101 Firefox/124.0" etag="LkS_JULPVzOyXrO4xxNm" version="24.2.5" type="github" pages="2">
  <diagram name="Страница — 1" id="sHB8bnEQEHqJdaPV740z">
    <mxGraphModel dx="193" dy="114" grid="0" gridSize="10" guides="1" tooltips="1" connect="1" arrows="1" fold="1" page="1" pageScale="1" pageWidth="827" pageHeight="1169" math="0" shadow="0">
      <root>
        <mxCell id="0" />
        <mxCell id="1" parent="0" />
        <mxCell id="6DLuC9lkdZeZimnQaC1s-1" value="" style="endArrow=none;html=1;rounded=0;fontSize=12;startSize=8;endSize=8;curved=1;strokeColor=#000000;strokeWidth=2;" parent="1" edge="1">
          <mxGeometry width="50" height="50" relative="1" as="geometry">
            <mxPoint x="40.82" y="40" as="sourcePoint" />
            <mxPoint x="120.82" y="40" as="targetPoint" />
          </mxGeometry>
        </mxCell>
        <mxCell id="6DLuC9lkdZeZimnQaC1s-2" value="" style="endArrow=none;html=1;rounded=0;fontSize=12;startSize=8;endSize=8;curved=1;strokeColor=#000000;strokeWidth=2;" parent="1" edge="1">
          <mxGeometry width="50" height="50" relative="1" as="geometry">
            <mxPoint x="120.82" y="120" as="sourcePoint" />
            <mxPoint x="120.82" y="40" as="targetPoint" />
          </mxGeometry>
        </mxCell>
        <mxCell id="6DLuC9lkdZeZimnQaC1s-3" value="" style="endArrow=none;html=1;rounded=0;fontSize=12;startSize=8;endSize=8;strokeColor=#000000;strokeWidth=2;" parent="1" edge="1">
          <mxGeometry width="50" height="50" relative="1" as="geometry">
            <mxPoint x="40.82" y="40" as="sourcePoint" />
            <mxPoint x="120.82" y="120" as="targetPoint" />
            <Array as="points">
              <mxPoint x="40.82" y="120" />
            </Array>
          </mxGeometry>
        </mxCell>
        <mxCell id="6DLuC9lkdZeZimnQaC1s-5" value="" style="endArrow=none;html=1;rounded=0;fontSize=12;startSize=8;endSize=8;curved=1;strokeWidth=2;strokeColor=#000000;" parent="1" edge="1">
          <mxGeometry width="50" height="50" relative="1" as="geometry">
            <mxPoint x="160.82" y="40" as="sourcePoint" />
            <mxPoint x="240.82" y="40" as="targetPoint" />
          </mxGeometry>
        </mxCell>
        <mxCell id="6DLuC9lkdZeZimnQaC1s-6" value="" style="endArrow=none;html=1;rounded=0;fontSize=12;startSize=8;endSize=8;curved=1;strokeWidth=2;strokeColor=#000000;" parent="1" edge="1">
          <mxGeometry width="50" height="50" relative="1" as="geometry">
            <mxPoint x="240.82" y="120" as="sourcePoint" />
            <mxPoint x="240.82" y="40" as="targetPoint" />
          </mxGeometry>
        </mxCell>
        <mxCell id="6DLuC9lkdZeZimnQaC1s-7" value="" style="endArrow=none;html=1;rounded=0;fontSize=12;startSize=8;endSize=8;strokeWidth=2;strokeColor=#000000;" parent="1" edge="1">
          <mxGeometry width="50" height="50" relative="1" as="geometry">
            <mxPoint x="160.82" y="40" as="sourcePoint" />
            <mxPoint x="240.82" y="120" as="targetPoint" />
            <Array as="points">
              <mxPoint x="160.82" y="120" />
            </Array>
          </mxGeometry>
        </mxCell>
        <mxCell id="6DLuC9lkdZeZimnQaC1s-8" value="" style="endArrow=none;html=1;rounded=0;fontSize=12;startSize=8;endSize=8;curved=1;strokeColor=#000000;strokeWidth=2;" parent="1" edge="1">
          <mxGeometry width="50" height="50" relative="1" as="geometry">
            <mxPoint x="80.82" y="110" as="sourcePoint" />
            <mxPoint x="50.82" y="50" as="targetPoint" />
          </mxGeometry>
        </mxCell>
        <mxCell id="6DLuC9lkdZeZimnQaC1s-9" value="" style="endArrow=none;html=1;rounded=0;fontSize=12;startSize=8;endSize=8;curved=1;strokeColor=#000000;strokeWidth=2;" parent="1" edge="1">
          <mxGeometry width="50" height="50" relative="1" as="geometry">
            <mxPoint x="80.82" y="110" as="sourcePoint" />
            <mxPoint x="110.82" y="50" as="targetPoint" />
          </mxGeometry>
        </mxCell>
        <mxCell id="6DLuC9lkdZeZimnQaC1s-10" value="" style="endArrow=none;html=1;rounded=0;fontSize=12;startSize=8;endSize=8;curved=1;strokeWidth=2;strokeColor=#000000;" parent="1" edge="1">
          <mxGeometry width="50" height="50" relative="1" as="geometry">
            <mxPoint x="200.82" y="100" as="sourcePoint" />
            <mxPoint x="200.82" y="50" as="targetPoint" />
          </mxGeometry>
        </mxCell>
        <mxCell id="6DLuC9lkdZeZimnQaC1s-11" value="" style="ellipse;whiteSpace=wrap;html=1;aspect=fixed;fontSize=16;strokeWidth=2;strokeColor=#000000;" parent="1" vertex="1">
          <mxGeometry x="195.82" y="100" width="10" height="10" as="geometry" />
        </mxCell>
        <mxCell id="6DLuC9lkdZeZimnQaC1s-12" value="" style="endArrow=none;html=1;rounded=0;fontSize=12;startSize=8;endSize=8;curved=1;strokeWidth=2;strokeColor=#000000;" parent="1" edge="1">
          <mxGeometry width="50" height="50" relative="1" as="geometry">
            <mxPoint x="280.82" y="40" as="sourcePoint" />
            <mxPoint x="360.82" y="40" as="targetPoint" />
          </mxGeometry>
        </mxCell>
        <mxCell id="6DLuC9lkdZeZimnQaC1s-13" value="" style="endArrow=none;html=1;rounded=0;fontSize=12;startSize=8;endSize=8;curved=1;strokeWidth=2;strokeColor=#000000;" parent="1" edge="1">
          <mxGeometry width="50" height="50" relative="1" as="geometry">
            <mxPoint x="360.82" y="120" as="sourcePoint" />
            <mxPoint x="360.82" y="40" as="targetPoint" />
          </mxGeometry>
        </mxCell>
        <mxCell id="6DLuC9lkdZeZimnQaC1s-14" value="" style="endArrow=none;html=1;rounded=0;fontSize=12;startSize=8;endSize=8;strokeWidth=2;strokeColor=#000000;" parent="1" edge="1">
          <mxGeometry width="50" height="50" relative="1" as="geometry">
            <mxPoint x="280.82" y="40" as="sourcePoint" />
            <mxPoint x="360.82" y="120" as="targetPoint" />
            <Array as="points">
              <mxPoint x="280.82" y="120" />
            </Array>
          </mxGeometry>
        </mxCell>
        <mxCell id="6DLuC9lkdZeZimnQaC1s-15" value="" style="endArrow=none;html=1;rounded=0;fontSize=12;startSize=8;endSize=8;curved=1;strokeWidth=2;strokeColor=#000000;" parent="1" edge="1">
          <mxGeometry width="50" height="50" relative="1" as="geometry">
            <mxPoint x="350.82" y="90" as="sourcePoint" />
            <mxPoint x="290.82" y="70" as="targetPoint" />
          </mxGeometry>
        </mxCell>
        <mxCell id="6DLuC9lkdZeZimnQaC1s-16" value="" style="endArrow=none;html=1;rounded=0;fontSize=12;startSize=8;endSize=8;curved=1;strokeWidth=2;strokeColor=#000000;" parent="1" edge="1">
          <mxGeometry width="50" height="50" relative="1" as="geometry">
            <mxPoint x="290.82" y="70" as="sourcePoint" />
            <mxPoint x="350.82" y="50" as="targetPoint" />
          </mxGeometry>
        </mxCell>
        <mxCell id="6DLuC9lkdZeZimnQaC1s-17" value="" style="endArrow=none;html=1;rounded=0;fontSize=12;startSize=8;endSize=8;curved=1;strokeWidth=2;strokeColor=#000000;" parent="1" edge="1">
          <mxGeometry width="50" height="50" relative="1" as="geometry">
            <mxPoint x="290.82" y="110" as="sourcePoint" />
            <mxPoint x="350.82" y="90" as="targetPoint" />
          </mxGeometry>
        </mxCell>
        <mxCell id="6DLuC9lkdZeZimnQaC1s-18" value="" style="endArrow=none;html=1;rounded=0;fontSize=12;startSize=8;endSize=8;curved=1;strokeWidth=2;strokeColor=#000000;" parent="1" edge="1">
          <mxGeometry width="50" height="50" relative="1" as="geometry">
            <mxPoint x="400.82" y="40" as="sourcePoint" />
            <mxPoint x="480.82" y="40" as="targetPoint" />
          </mxGeometry>
        </mxCell>
        <mxCell id="6DLuC9lkdZeZimnQaC1s-19" value="" style="endArrow=none;html=1;rounded=0;fontSize=12;startSize=8;endSize=8;curved=1;strokeWidth=2;strokeColor=#000000;" parent="1" edge="1">
          <mxGeometry width="50" height="50" relative="1" as="geometry">
            <mxPoint x="480.82" y="120" as="sourcePoint" />
            <mxPoint x="480.82" y="40" as="targetPoint" />
          </mxGeometry>
        </mxCell>
        <mxCell id="6DLuC9lkdZeZimnQaC1s-20" value="" style="endArrow=none;html=1;rounded=0;fontSize=12;startSize=8;endSize=8;strokeWidth=2;strokeColor=#000000;" parent="1" edge="1">
          <mxGeometry width="50" height="50" relative="1" as="geometry">
            <mxPoint x="400.82" y="40" as="sourcePoint" />
            <mxPoint x="480.82" y="120" as="targetPoint" />
            <Array as="points">
              <mxPoint x="400.82" y="120" />
            </Array>
          </mxGeometry>
        </mxCell>
        <mxCell id="6DLuC9lkdZeZimnQaC1s-22" value="" style="endArrow=none;html=1;rounded=0;fontSize=12;startSize=8;endSize=8;curved=1;strokeWidth=2;strokeColor=#000000;" parent="1" edge="1">
          <mxGeometry width="50" height="50" relative="1" as="geometry">
            <mxPoint x="440.82" y="80" as="sourcePoint" />
            <mxPoint x="470.82" y="50" as="targetPoint" />
            <Array as="points">
              <mxPoint x="460.82" y="80" />
            </Array>
          </mxGeometry>
        </mxCell>
        <mxCell id="6DLuC9lkdZeZimnQaC1s-23" value="" style="endArrow=none;html=1;rounded=0;fontSize=12;startSize=8;endSize=8;curved=1;strokeWidth=2;strokeColor=#000000;" parent="1" edge="1">
          <mxGeometry width="50" height="50" relative="1" as="geometry">
            <mxPoint x="440.82" y="110" as="sourcePoint" />
            <mxPoint x="440.82" y="80" as="targetPoint" />
          </mxGeometry>
        </mxCell>
        <mxCell id="6DLuC9lkdZeZimnQaC1s-24" value="" style="endArrow=none;html=1;rounded=0;fontSize=12;startSize=8;endSize=8;curved=1;strokeWidth=2;strokeColor=#000000;" parent="1" edge="1">
          <mxGeometry width="50" height="50" relative="1" as="geometry">
            <mxPoint x="440.82" y="80" as="sourcePoint" />
            <mxPoint x="410.82" y="50" as="targetPoint" />
            <Array as="points">
              <mxPoint x="420.82" y="80" />
            </Array>
          </mxGeometry>
        </mxCell>
        <mxCell id="6DLuC9lkdZeZimnQaC1s-25" value="" style="endArrow=none;html=1;rounded=0;fontSize=12;startSize=8;endSize=8;curved=1;strokeWidth=2;strokeColor=#000000;" parent="1" edge="1">
          <mxGeometry width="50" height="50" relative="1" as="geometry">
            <mxPoint x="520.48" y="40" as="sourcePoint" />
            <mxPoint x="600.48" y="40" as="targetPoint" />
          </mxGeometry>
        </mxCell>
        <mxCell id="6DLuC9lkdZeZimnQaC1s-26" value="" style="endArrow=none;html=1;rounded=0;fontSize=12;startSize=8;endSize=8;curved=1;strokeWidth=2;strokeColor=#000000;" parent="1" edge="1">
          <mxGeometry width="50" height="50" relative="1" as="geometry">
            <mxPoint x="600.48" y="120" as="sourcePoint" />
            <mxPoint x="600.48" y="40" as="targetPoint" />
          </mxGeometry>
        </mxCell>
        <mxCell id="6DLuC9lkdZeZimnQaC1s-27" value="" style="endArrow=none;html=1;rounded=0;fontSize=12;startSize=8;endSize=8;strokeWidth=2;strokeColor=#000000;" parent="1" edge="1">
          <mxGeometry width="50" height="50" relative="1" as="geometry">
            <mxPoint x="520.48" y="40" as="sourcePoint" />
            <mxPoint x="600.48" y="120" as="targetPoint" />
            <Array as="points">
              <mxPoint x="520.48" y="120" />
            </Array>
          </mxGeometry>
        </mxCell>
        <mxCell id="6DLuC9lkdZeZimnQaC1s-29" value="" style="ellipse;whiteSpace=wrap;html=1;aspect=fixed;fontSize=16;strokeWidth=2;strokeColor=#000000;" parent="1" vertex="1">
          <mxGeometry x="535.48" y="55" width="50.48" height="50.48" as="geometry" />
        </mxCell>
        <mxCell id="6DLuC9lkdZeZimnQaC1s-30" value="" style="endArrow=none;html=1;rounded=0;fontSize=12;startSize=8;endSize=8;curved=1;strokeColor=#FFEB3B;strokeWidth=5;" parent="1" edge="1">
          <mxGeometry width="50" height="50" relative="1" as="geometry">
            <mxPoint x="760" y="80" as="sourcePoint" />
            <mxPoint x="760" y="40" as="targetPoint" />
          </mxGeometry>
        </mxCell>
        <mxCell id="6DLuC9lkdZeZimnQaC1s-31" value="" style="endArrow=none;html=1;rounded=0;fontSize=12;startSize=8;endSize=8;curved=1;" parent="1" edge="1">
          <mxGeometry width="50" height="50" relative="1" as="geometry">
            <mxPoint x="760" y="80" as="sourcePoint" />
            <mxPoint x="680" y="40" as="targetPoint" />
            <Array as="points">
              <mxPoint x="700" y="80" />
            </Array>
          </mxGeometry>
        </mxCell>
        <mxCell id="6DLuC9lkdZeZimnQaC1s-32" value="" style="endArrow=none;html=1;rounded=0;fontSize=12;startSize=8;endSize=8;curved=1;strokeWidth=2;strokeColor=#000000;" parent="1" edge="1">
          <mxGeometry width="50" height="50" relative="1" as="geometry">
            <mxPoint x="640" y="160.24" as="sourcePoint" />
            <mxPoint x="720" y="160.24" as="targetPoint" />
          </mxGeometry>
        </mxCell>
        <mxCell id="6DLuC9lkdZeZimnQaC1s-33" value="" style="endArrow=none;html=1;rounded=0;fontSize=12;startSize=8;endSize=8;curved=1;strokeWidth=2;strokeColor=#000000;" parent="1" edge="1">
          <mxGeometry width="50" height="50" relative="1" as="geometry">
            <mxPoint x="720" y="240.24" as="sourcePoint" />
            <mxPoint x="720" y="160.24" as="targetPoint" />
          </mxGeometry>
        </mxCell>
        <mxCell id="6DLuC9lkdZeZimnQaC1s-34" value="" style="endArrow=none;html=1;rounded=0;fontSize=12;startSize=8;endSize=8;strokeWidth=2;strokeColor=#000000;" parent="1" edge="1">
          <mxGeometry width="50" height="50" relative="1" as="geometry">
            <mxPoint x="640" y="160.24" as="sourcePoint" />
            <mxPoint x="720" y="240.24" as="targetPoint" />
            <Array as="points">
              <mxPoint x="640" y="240.24" />
            </Array>
          </mxGeometry>
        </mxCell>
        <mxCell id="6DLuC9lkdZeZimnQaC1s-35" value="" style="endArrow=none;html=1;rounded=0;fontSize=12;startSize=8;endSize=8;curved=1;strokeWidth=2;strokeColor=#000000;" parent="1" edge="1">
          <mxGeometry width="50" height="50" relative="1" as="geometry">
            <mxPoint x="650" y="220" as="sourcePoint" />
            <mxPoint x="650" y="180" as="targetPoint" />
          </mxGeometry>
        </mxCell>
        <mxCell id="6DLuC9lkdZeZimnQaC1s-36" value="" style="endArrow=none;html=1;rounded=0;fontSize=12;startSize=8;endSize=8;curved=1;strokeWidth=2;strokeColor=#000000;" parent="1" edge="1">
          <mxGeometry width="50" height="50" relative="1" as="geometry">
            <mxPoint x="680" y="180" as="sourcePoint" />
            <mxPoint x="710" y="170.24" as="targetPoint" />
          </mxGeometry>
        </mxCell>
        <mxCell id="6DLuC9lkdZeZimnQaC1s-37" value="" style="endArrow=none;html=1;rounded=0;fontSize=12;startSize=8;endSize=8;curved=1;strokeWidth=2;strokeColor=#000000;" parent="1" edge="1">
          <mxGeometry width="50" height="50" relative="1" as="geometry">
            <mxPoint x="680" y="180" as="sourcePoint" />
            <mxPoint x="650" y="180.24" as="targetPoint" />
          </mxGeometry>
        </mxCell>
        <mxCell id="6DLuC9lkdZeZimnQaC1s-38" value="" style="endArrow=none;html=1;rounded=0;fontSize=12;startSize=8;endSize=8;curved=1;strokeWidth=2;strokeColor=#000000;" parent="1" edge="1">
          <mxGeometry width="50" height="50" relative="1" as="geometry">
            <mxPoint x="680" y="220" as="sourcePoint" />
            <mxPoint x="650" y="220" as="targetPoint" />
          </mxGeometry>
        </mxCell>
        <mxCell id="6DLuC9lkdZeZimnQaC1s-39" value="" style="endArrow=none;html=1;rounded=0;fontSize=12;startSize=8;endSize=8;curved=1;strokeWidth=2;strokeColor=#000000;" parent="1" edge="1">
          <mxGeometry width="50" height="50" relative="1" as="geometry">
            <mxPoint x="680" y="220.24" as="sourcePoint" />
            <mxPoint x="680" y="180.24" as="targetPoint" />
          </mxGeometry>
        </mxCell>
        <mxCell id="6DLuC9lkdZeZimnQaC1s-40" value="" style="endArrow=none;html=1;rounded=0;fontSize=12;startSize=8;endSize=8;curved=1;strokeWidth=2;strokeColor=#000000;" parent="1" edge="1">
          <mxGeometry width="50" height="50" relative="1" as="geometry">
            <mxPoint x="680" y="220.48000000000002" as="sourcePoint" />
            <mxPoint x="710" y="230.24" as="targetPoint" />
          </mxGeometry>
        </mxCell>
        <mxCell id="6DLuC9lkdZeZimnQaC1s-41" value="" style="endArrow=none;html=1;rounded=0;fontSize=12;startSize=8;endSize=8;curved=1;strokeWidth=2;strokeColor=#000000;" parent="1" edge="1">
          <mxGeometry width="50" height="50" relative="1" as="geometry">
            <mxPoint x="710" y="230" as="sourcePoint" />
            <mxPoint x="710" y="170" as="targetPoint" />
          </mxGeometry>
        </mxCell>
        <mxCell id="6DLuC9lkdZeZimnQaC1s-42" value="" style="endArrow=none;html=1;rounded=0;fontSize=12;startSize=8;endSize=8;curved=1;strokeWidth=2;strokeColor=#000000;" parent="1" edge="1">
          <mxGeometry width="50" height="50" relative="1" as="geometry">
            <mxPoint x="760" y="160.24" as="sourcePoint" />
            <mxPoint x="840" y="160.24" as="targetPoint" />
          </mxGeometry>
        </mxCell>
        <mxCell id="6DLuC9lkdZeZimnQaC1s-43" value="" style="endArrow=none;html=1;rounded=0;fontSize=12;startSize=8;endSize=8;curved=1;strokeWidth=2;strokeColor=#000000;" parent="1" edge="1">
          <mxGeometry width="50" height="50" relative="1" as="geometry">
            <mxPoint x="840" y="240.24" as="sourcePoint" />
            <mxPoint x="840" y="160.24" as="targetPoint" />
          </mxGeometry>
        </mxCell>
        <mxCell id="6DLuC9lkdZeZimnQaC1s-44" value="" style="endArrow=none;html=1;rounded=0;fontSize=12;startSize=8;endSize=8;strokeWidth=2;strokeColor=#000000;" parent="1" edge="1">
          <mxGeometry width="50" height="50" relative="1" as="geometry">
            <mxPoint x="760" y="160.24" as="sourcePoint" />
            <mxPoint x="840" y="240.24" as="targetPoint" />
            <Array as="points">
              <mxPoint x="760" y="240.24" />
            </Array>
          </mxGeometry>
        </mxCell>
        <mxCell id="6DLuC9lkdZeZimnQaC1s-45" value="" style="ellipse;whiteSpace=wrap;html=1;aspect=fixed;fontSize=16;strokeWidth=2;strokeColor=#000000;" parent="1" vertex="1">
          <mxGeometry x="775" y="175.24" width="50.48" height="50.48" as="geometry" />
        </mxCell>
        <mxCell id="6DLuC9lkdZeZimnQaC1s-46" value="" style="endArrow=none;html=1;rounded=0;fontSize=12;startSize=8;endSize=8;curved=1;entryX=0;entryY=0;entryDx=0;entryDy=0;exitX=1;exitY=1;exitDx=0;exitDy=0;strokeWidth=2;strokeColor=#000000;" parent="1" source="6DLuC9lkdZeZimnQaC1s-45" target="6DLuC9lkdZeZimnQaC1s-45" edge="1">
          <mxGeometry width="50" height="50" relative="1" as="geometry">
            <mxPoint x="800.04" y="215.48000000000002" as="sourcePoint" />
            <mxPoint x="800.04" y="185.48000000000002" as="targetPoint" />
          </mxGeometry>
        </mxCell>
        <mxCell id="6DLuC9lkdZeZimnQaC1s-47" value="" style="endArrow=none;html=1;rounded=0;fontSize=12;startSize=8;endSize=8;curved=1;entryX=0.158;entryY=0.861;entryDx=0;entryDy=0;exitX=0.864;exitY=0.161;exitDx=0;exitDy=0;exitPerimeter=0;entryPerimeter=0;strokeWidth=2;strokeColor=#000000;" parent="1" source="6DLuC9lkdZeZimnQaC1s-45" target="6DLuC9lkdZeZimnQaC1s-45" edge="1">
          <mxGeometry width="50" height="50" relative="1" as="geometry">
            <mxPoint x="818.24" y="184.24" as="sourcePoint" />
            <mxPoint x="782.24" y="220.24" as="targetPoint" />
          </mxGeometry>
        </mxCell>
        <mxCell id="6DLuC9lkdZeZimnQaC1s-48" value="" style="endArrow=none;html=1;rounded=0;fontSize=12;startSize=8;endSize=8;curved=1;strokeWidth=2;strokeColor=#1A1A1A;" parent="1" edge="1">
          <mxGeometry width="50" height="50" relative="1" as="geometry">
            <mxPoint x="1241" y="83.22000000000003" as="sourcePoint" />
            <mxPoint x="1271" y="73.46000000000004" as="targetPoint" />
          </mxGeometry>
        </mxCell>
        <mxCell id="6DLuC9lkdZeZimnQaC1s-49" value="" style="endArrow=none;html=1;rounded=0;fontSize=12;startSize=8;endSize=8;curved=1;strokeWidth=2;strokeColor=#1A1A1A;" parent="1" edge="1">
          <mxGeometry width="50" height="50" relative="1" as="geometry">
            <mxPoint x="1241" y="123.46000000000004" as="sourcePoint" />
            <mxPoint x="1241" y="83.46000000000004" as="targetPoint" />
          </mxGeometry>
        </mxCell>
        <mxCell id="6DLuC9lkdZeZimnQaC1s-50" value="" style="endArrow=none;html=1;rounded=0;fontSize=12;startSize=8;endSize=8;curved=1;strokeWidth=2;strokeColor=#1A1A1A;" parent="1" edge="1">
          <mxGeometry width="50" height="50" relative="1" as="geometry">
            <mxPoint x="1241" y="123.70000000000005" as="sourcePoint" />
            <mxPoint x="1271" y="133.46000000000004" as="targetPoint" />
          </mxGeometry>
        </mxCell>
        <mxCell id="6DLuC9lkdZeZimnQaC1s-51" value="" style="endArrow=none;html=1;rounded=0;fontSize=12;startSize=8;endSize=8;curved=1;strokeWidth=2;strokeColor=#1A1A1A;" parent="1" edge="1">
          <mxGeometry width="50" height="50" relative="1" as="geometry">
            <mxPoint x="1271" y="133.22000000000003" as="sourcePoint" />
            <mxPoint x="1271" y="73.22000000000003" as="targetPoint" />
          </mxGeometry>
        </mxCell>
        <mxCell id="6DLuC9lkdZeZimnQaC1s-54" value="" style="endArrow=none;html=1;rounded=0;fontSize=12;startSize=8;endSize=8;curved=1;strokeWidth=2;strokeColor=#FFEB3B;" parent="1" edge="1">
          <mxGeometry width="50" height="50" relative="1" as="geometry">
            <mxPoint x="880" y="260" as="sourcePoint" />
            <mxPoint x="960" y="260" as="targetPoint" />
          </mxGeometry>
        </mxCell>
        <mxCell id="6DLuC9lkdZeZimnQaC1s-55" value="" style="endArrow=none;html=1;rounded=0;fontSize=12;startSize=8;endSize=8;curved=1;strokeWidth=2;strokeColor=#FFEB3B;" parent="1" edge="1">
          <mxGeometry width="50" height="50" relative="1" as="geometry">
            <mxPoint x="960" y="360" as="sourcePoint" />
            <mxPoint x="960" y="260" as="targetPoint" />
          </mxGeometry>
        </mxCell>
        <mxCell id="6DLuC9lkdZeZimnQaC1s-56" value="" style="endArrow=none;html=1;rounded=0;fontSize=12;startSize=8;endSize=8;strokeWidth=2;strokeColor=#FFEB3B;" parent="1" edge="1">
          <mxGeometry width="50" height="50" relative="1" as="geometry">
            <mxPoint x="880" y="260" as="sourcePoint" />
            <mxPoint x="960" y="360" as="targetPoint" />
            <Array as="points">
              <mxPoint x="880" y="360" />
            </Array>
          </mxGeometry>
        </mxCell>
        <mxCell id="6DLuC9lkdZeZimnQaC1s-58" value="" style="endArrow=none;html=1;rounded=0;fontSize=12;startSize=8;endSize=8;curved=1;strokeWidth=2;strokeColor=#FFEB3B;" parent="1" edge="1">
          <mxGeometry width="50" height="50" relative="1" as="geometry">
            <mxPoint x="880" y="260" as="sourcePoint" />
            <mxPoint x="960" y="260" as="targetPoint" />
            <Array as="points">
              <mxPoint x="920" y="210" />
            </Array>
          </mxGeometry>
        </mxCell>
        <mxCell id="6DLuC9lkdZeZimnQaC1s-59" value="" style="rounded=0;whiteSpace=wrap;html=1;fontSize=16;strokeWidth=2;strokeColor=#FFEB3B;" parent="1" vertex="1">
          <mxGeometry x="910" y="216" width="20" height="20" as="geometry" />
        </mxCell>
        <mxCell id="6DLuC9lkdZeZimnQaC1s-60" value="" style="endArrow=none;html=1;rounded=0;fontSize=12;startSize=8;endSize=8;curved=1;strokeWidth=2;" parent="1" edge="1">
          <mxGeometry width="50" height="50" relative="1" as="geometry">
            <mxPoint x="1140" y="80.35000000000005" as="sourcePoint" />
            <mxPoint x="1140" y="160.35000000000005" as="targetPoint" />
          </mxGeometry>
        </mxCell>
        <mxCell id="6DLuC9lkdZeZimnQaC1s-61" value="" style="endArrow=none;html=1;rounded=0;fontSize=12;startSize=8;endSize=8;curved=1;strokeWidth=2;" parent="1" edge="1">
          <mxGeometry width="50" height="50" relative="1" as="geometry">
            <mxPoint x="1040" y="160.35000000000005" as="sourcePoint" />
            <mxPoint x="1140" y="160.35000000000005" as="targetPoint" />
          </mxGeometry>
        </mxCell>
        <mxCell id="6DLuC9lkdZeZimnQaC1s-62" value="" style="endArrow=none;html=1;rounded=0;fontSize=12;startSize=8;endSize=8;strokeWidth=2;" parent="1" edge="1">
          <mxGeometry width="50" height="50" relative="1" as="geometry">
            <mxPoint x="1140" y="80.35000000000005" as="sourcePoint" />
            <mxPoint x="1040" y="160.35000000000005" as="targetPoint" />
            <Array as="points">
              <mxPoint x="1040" y="80.35000000000005" />
            </Array>
          </mxGeometry>
        </mxCell>
        <mxCell id="6DLuC9lkdZeZimnQaC1s-63" value="" style="endArrow=none;html=1;rounded=0;fontSize=12;startSize=8;endSize=8;curved=1;strokeWidth=2;" parent="1" edge="1">
          <mxGeometry width="50" height="50" relative="1" as="geometry">
            <mxPoint x="1140" y="160.35000000000016" as="sourcePoint" />
            <mxPoint x="1140" y="80.35000000000016" as="targetPoint" />
            <Array as="points">
              <mxPoint x="1190" y="120.35000000000016" />
            </Array>
          </mxGeometry>
        </mxCell>
        <mxCell id="6DLuC9lkdZeZimnQaC1s-65" value="" style="endArrow=none;html=1;rounded=0;fontSize=12;startSize=8;endSize=8;curved=1;strokeWidth=2;" parent="1" edge="1">
          <mxGeometry width="50" height="50" relative="1" as="geometry">
            <mxPoint x="1040" y="160.00000000000014" as="sourcePoint" />
            <mxPoint x="1040" y="80.00000000000014" as="targetPoint" />
            <Array as="points">
              <mxPoint x="990" y="120.00000000000014" />
            </Array>
          </mxGeometry>
        </mxCell>
        <mxCell id="6DLuC9lkdZeZimnQaC1s-66" value="" style="endArrow=none;html=1;rounded=0;fontSize=12;startSize=8;endSize=8;curved=1;strokeColor=#E53935;strokeWidth=2;" parent="1" edge="1">
          <mxGeometry width="50" height="50" relative="1" as="geometry">
            <mxPoint x="40.00000000000001" y="160.24" as="sourcePoint" />
            <mxPoint x="120" y="160.24" as="targetPoint" />
          </mxGeometry>
        </mxCell>
        <mxCell id="6DLuC9lkdZeZimnQaC1s-67" value="" style="endArrow=none;html=1;rounded=0;fontSize=12;startSize=8;endSize=8;curved=1;strokeColor=#E53935;strokeWidth=2;" parent="1" edge="1">
          <mxGeometry width="50" height="50" relative="1" as="geometry">
            <mxPoint x="120" y="240.24" as="sourcePoint" />
            <mxPoint x="120" y="160.24" as="targetPoint" />
          </mxGeometry>
        </mxCell>
        <mxCell id="6DLuC9lkdZeZimnQaC1s-68" value="" style="endArrow=none;html=1;rounded=0;fontSize=12;startSize=8;endSize=8;strokeColor=#E53935;strokeWidth=2;" parent="1" edge="1">
          <mxGeometry width="50" height="50" relative="1" as="geometry">
            <mxPoint x="40.00000000000001" y="160.24" as="sourcePoint" />
            <mxPoint x="120" y="240.24" as="targetPoint" />
            <Array as="points">
              <mxPoint x="40.00000000000001" y="240.24" />
            </Array>
          </mxGeometry>
        </mxCell>
        <mxCell id="6DLuC9lkdZeZimnQaC1s-69" value="" style="endArrow=none;html=1;rounded=0;fontSize=12;startSize=8;endSize=8;curved=1;strokeWidth=2;" parent="1" edge="1">
          <mxGeometry width="50" height="50" relative="1" as="geometry">
            <mxPoint x="80" y="230.24" as="sourcePoint" />
            <mxPoint x="50.00000000000001" y="170.24" as="targetPoint" />
          </mxGeometry>
        </mxCell>
        <mxCell id="6DLuC9lkdZeZimnQaC1s-70" value="" style="endArrow=none;html=1;rounded=0;fontSize=12;startSize=8;endSize=8;curved=1;strokeWidth=2;" parent="1" edge="1">
          <mxGeometry width="50" height="50" relative="1" as="geometry">
            <mxPoint x="80" y="230.24" as="sourcePoint" />
            <mxPoint x="110" y="170.24" as="targetPoint" />
          </mxGeometry>
        </mxCell>
        <mxCell id="6DLuC9lkdZeZimnQaC1s-71" value="" style="endArrow=none;html=1;rounded=0;fontSize=12;startSize=8;endSize=8;curved=1;strokeColor=#FFEB3B;strokeWidth=2;" parent="1" edge="1">
          <mxGeometry width="50" height="50" relative="1" as="geometry">
            <mxPoint x="40.29000000000001" y="280.34999999999997" as="sourcePoint" />
            <mxPoint x="120.28999999999999" y="280.34999999999997" as="targetPoint" />
          </mxGeometry>
        </mxCell>
        <mxCell id="6DLuC9lkdZeZimnQaC1s-72" value="" style="endArrow=none;html=1;rounded=0;fontSize=12;startSize=8;endSize=8;curved=1;strokeColor=#FFEB3B;strokeWidth=2;" parent="1" edge="1">
          <mxGeometry width="50" height="50" relative="1" as="geometry">
            <mxPoint x="120.28999999999999" y="360.34999999999997" as="sourcePoint" />
            <mxPoint x="120.28999999999999" y="280.34999999999997" as="targetPoint" />
          </mxGeometry>
        </mxCell>
        <mxCell id="6DLuC9lkdZeZimnQaC1s-73" value="" style="endArrow=none;html=1;rounded=0;fontSize=12;startSize=8;endSize=8;strokeColor=#FFEB3B;strokeWidth=2;" parent="1" edge="1">
          <mxGeometry width="50" height="50" relative="1" as="geometry">
            <mxPoint x="40.29000000000001" y="280.34999999999997" as="sourcePoint" />
            <mxPoint x="120.28999999999999" y="360.34999999999997" as="targetPoint" />
            <Array as="points">
              <mxPoint x="40.29000000000001" y="360.34999999999997" />
            </Array>
          </mxGeometry>
        </mxCell>
        <mxCell id="6DLuC9lkdZeZimnQaC1s-74" value="" style="endArrow=none;html=1;rounded=0;fontSize=12;startSize=8;endSize=8;curved=1;strokeColor=#FFEB3B;strokeWidth=2;" parent="1" edge="1">
          <mxGeometry width="50" height="50" relative="1" as="geometry">
            <mxPoint x="80.29000000000002" y="350.34999999999997" as="sourcePoint" />
            <mxPoint x="50.29000000000001" y="290.34999999999997" as="targetPoint" />
          </mxGeometry>
        </mxCell>
        <mxCell id="6DLuC9lkdZeZimnQaC1s-75" value="" style="endArrow=none;html=1;rounded=0;fontSize=12;startSize=8;endSize=8;curved=1;strokeColor=#FFEB3B;strokeWidth=2;" parent="1" edge="1">
          <mxGeometry width="50" height="50" relative="1" as="geometry">
            <mxPoint x="80.29000000000002" y="350.34999999999997" as="sourcePoint" />
            <mxPoint x="110.28999999999999" y="290.34999999999997" as="targetPoint" />
          </mxGeometry>
        </mxCell>
        <mxCell id="6DLuC9lkdZeZimnQaC1s-76" value="" style="endArrow=none;html=1;rounded=0;fontSize=12;startSize=8;endSize=8;curved=1;strokeWidth=2;strokeColor=#E53935;" parent="1" edge="1">
          <mxGeometry width="50" height="50" relative="1" as="geometry">
            <mxPoint x="160.89" y="160" as="sourcePoint" />
            <mxPoint x="240.89" y="160" as="targetPoint" />
          </mxGeometry>
        </mxCell>
        <mxCell id="6DLuC9lkdZeZimnQaC1s-77" value="" style="endArrow=none;html=1;rounded=0;fontSize=12;startSize=8;endSize=8;curved=1;strokeWidth=2;strokeColor=#E53935;" parent="1" edge="1">
          <mxGeometry width="50" height="50" relative="1" as="geometry">
            <mxPoint x="240.89" y="240" as="sourcePoint" />
            <mxPoint x="240.89" y="160" as="targetPoint" />
          </mxGeometry>
        </mxCell>
        <mxCell id="6DLuC9lkdZeZimnQaC1s-78" value="" style="endArrow=none;html=1;rounded=0;fontSize=12;startSize=8;endSize=8;strokeWidth=2;strokeColor=#E53935;" parent="1" edge="1">
          <mxGeometry width="50" height="50" relative="1" as="geometry">
            <mxPoint x="160.89" y="160" as="sourcePoint" />
            <mxPoint x="240.89" y="240" as="targetPoint" />
            <Array as="points">
              <mxPoint x="160.89" y="240" />
            </Array>
          </mxGeometry>
        </mxCell>
        <mxCell id="6DLuC9lkdZeZimnQaC1s-79" value="" style="endArrow=none;html=1;rounded=0;fontSize=12;startSize=8;endSize=8;curved=1;strokeWidth=2;" parent="1" edge="1">
          <mxGeometry width="50" height="50" relative="1" as="geometry">
            <mxPoint x="200.89" y="220" as="sourcePoint" />
            <mxPoint x="200.89" y="170" as="targetPoint" />
          </mxGeometry>
        </mxCell>
        <mxCell id="6DLuC9lkdZeZimnQaC1s-80" value="" style="ellipse;whiteSpace=wrap;html=1;aspect=fixed;fontSize=16;strokeWidth=2;" parent="1" vertex="1">
          <mxGeometry x="195.89" y="220" width="10" height="10" as="geometry" />
        </mxCell>
        <mxCell id="6DLuC9lkdZeZimnQaC1s-81" value="" style="endArrow=none;html=1;rounded=0;fontSize=12;startSize=8;endSize=8;curved=1;strokeWidth=2;strokeColor=#E53935;" parent="1" edge="1">
          <mxGeometry width="50" height="50" relative="1" as="geometry">
            <mxPoint x="280.89" y="160" as="sourcePoint" />
            <mxPoint x="360.89" y="160" as="targetPoint" />
          </mxGeometry>
        </mxCell>
        <mxCell id="6DLuC9lkdZeZimnQaC1s-82" value="" style="endArrow=none;html=1;rounded=0;fontSize=12;startSize=8;endSize=8;curved=1;strokeWidth=2;strokeColor=#E53935;" parent="1" edge="1">
          <mxGeometry width="50" height="50" relative="1" as="geometry">
            <mxPoint x="360.89" y="240" as="sourcePoint" />
            <mxPoint x="360.89" y="160" as="targetPoint" />
          </mxGeometry>
        </mxCell>
        <mxCell id="6DLuC9lkdZeZimnQaC1s-83" value="" style="endArrow=none;html=1;rounded=0;fontSize=12;startSize=8;endSize=8;strokeWidth=2;strokeColor=#E53935;" parent="1" edge="1">
          <mxGeometry width="50" height="50" relative="1" as="geometry">
            <mxPoint x="280.89" y="160" as="sourcePoint" />
            <mxPoint x="360.89" y="240" as="targetPoint" />
            <Array as="points">
              <mxPoint x="280.89" y="240" />
            </Array>
          </mxGeometry>
        </mxCell>
        <mxCell id="6DLuC9lkdZeZimnQaC1s-84" value="" style="endArrow=none;html=1;rounded=0;fontSize=12;startSize=8;endSize=8;curved=1;strokeWidth=2;" parent="1" edge="1">
          <mxGeometry width="50" height="50" relative="1" as="geometry">
            <mxPoint x="350.89" y="210" as="sourcePoint" />
            <mxPoint x="290.89" y="190" as="targetPoint" />
          </mxGeometry>
        </mxCell>
        <mxCell id="6DLuC9lkdZeZimnQaC1s-85" value="" style="endArrow=none;html=1;rounded=0;fontSize=12;startSize=8;endSize=8;curved=1;strokeWidth=2;" parent="1" edge="1">
          <mxGeometry width="50" height="50" relative="1" as="geometry">
            <mxPoint x="290.89" y="190" as="sourcePoint" />
            <mxPoint x="350.89" y="170" as="targetPoint" />
          </mxGeometry>
        </mxCell>
        <mxCell id="6DLuC9lkdZeZimnQaC1s-86" value="" style="endArrow=none;html=1;rounded=0;fontSize=12;startSize=8;endSize=8;curved=1;strokeWidth=2;" parent="1" edge="1">
          <mxGeometry width="50" height="50" relative="1" as="geometry">
            <mxPoint x="290.89" y="230" as="sourcePoint" />
            <mxPoint x="350.89" y="210" as="targetPoint" />
          </mxGeometry>
        </mxCell>
        <mxCell id="6DLuC9lkdZeZimnQaC1s-87" value="" style="endArrow=none;html=1;rounded=0;fontSize=12;startSize=8;endSize=8;curved=1;strokeWidth=2;strokeColor=#E53935;" parent="1" edge="1">
          <mxGeometry width="50" height="50" relative="1" as="geometry">
            <mxPoint x="400.89" y="160" as="sourcePoint" />
            <mxPoint x="480.89000000000004" y="160" as="targetPoint" />
          </mxGeometry>
        </mxCell>
        <mxCell id="6DLuC9lkdZeZimnQaC1s-88" value="" style="endArrow=none;html=1;rounded=0;fontSize=12;startSize=8;endSize=8;curved=1;strokeWidth=2;strokeColor=#E53935;" parent="1" edge="1">
          <mxGeometry width="50" height="50" relative="1" as="geometry">
            <mxPoint x="480.89000000000004" y="240" as="sourcePoint" />
            <mxPoint x="480.89000000000004" y="160" as="targetPoint" />
          </mxGeometry>
        </mxCell>
        <mxCell id="6DLuC9lkdZeZimnQaC1s-89" value="" style="endArrow=none;html=1;rounded=0;fontSize=12;startSize=8;endSize=8;strokeWidth=2;strokeColor=#E53935;" parent="1" edge="1">
          <mxGeometry width="50" height="50" relative="1" as="geometry">
            <mxPoint x="400.89" y="160" as="sourcePoint" />
            <mxPoint x="480.89000000000004" y="240" as="targetPoint" />
            <Array as="points">
              <mxPoint x="400.89" y="240" />
            </Array>
          </mxGeometry>
        </mxCell>
        <mxCell id="6DLuC9lkdZeZimnQaC1s-90" value="" style="endArrow=none;html=1;rounded=0;fontSize=12;startSize=8;endSize=8;curved=1;strokeWidth=2;" parent="1" edge="1">
          <mxGeometry width="50" height="50" relative="1" as="geometry">
            <mxPoint x="440.89" y="200" as="sourcePoint" />
            <mxPoint x="470.89" y="170" as="targetPoint" />
            <Array as="points">
              <mxPoint x="460.89" y="200" />
            </Array>
          </mxGeometry>
        </mxCell>
        <mxCell id="6DLuC9lkdZeZimnQaC1s-91" value="" style="endArrow=none;html=1;rounded=0;fontSize=12;startSize=8;endSize=8;curved=1;strokeWidth=2;" parent="1" edge="1">
          <mxGeometry width="50" height="50" relative="1" as="geometry">
            <mxPoint x="440.89" y="230" as="sourcePoint" />
            <mxPoint x="440.89" y="200" as="targetPoint" />
          </mxGeometry>
        </mxCell>
        <mxCell id="6DLuC9lkdZeZimnQaC1s-92" value="" style="endArrow=none;html=1;rounded=0;fontSize=12;startSize=8;endSize=8;curved=1;strokeWidth=2;" parent="1" edge="1">
          <mxGeometry width="50" height="50" relative="1" as="geometry">
            <mxPoint x="440.89" y="200" as="sourcePoint" />
            <mxPoint x="410.89" y="170" as="targetPoint" />
            <Array as="points">
              <mxPoint x="420.89" y="200" />
            </Array>
          </mxGeometry>
        </mxCell>
        <mxCell id="6DLuC9lkdZeZimnQaC1s-93" value="" style="endArrow=none;html=1;rounded=0;fontSize=12;startSize=8;endSize=8;curved=1;strokeWidth=2;strokeColor=#E53935;" parent="1" edge="1">
          <mxGeometry width="50" height="50" relative="1" as="geometry">
            <mxPoint x="520.5500000000001" y="160" as="sourcePoint" />
            <mxPoint x="600.5500000000001" y="160" as="targetPoint" />
          </mxGeometry>
        </mxCell>
        <mxCell id="6DLuC9lkdZeZimnQaC1s-94" value="" style="endArrow=none;html=1;rounded=0;fontSize=12;startSize=8;endSize=8;curved=1;strokeWidth=2;strokeColor=#E53935;" parent="1" edge="1">
          <mxGeometry width="50" height="50" relative="1" as="geometry">
            <mxPoint x="600.5500000000001" y="240" as="sourcePoint" />
            <mxPoint x="600.5500000000001" y="160" as="targetPoint" />
          </mxGeometry>
        </mxCell>
        <mxCell id="6DLuC9lkdZeZimnQaC1s-95" value="" style="endArrow=none;html=1;rounded=0;fontSize=12;startSize=8;endSize=8;strokeWidth=2;strokeColor=#E53935;" parent="1" edge="1">
          <mxGeometry width="50" height="50" relative="1" as="geometry">
            <mxPoint x="520.5500000000001" y="160" as="sourcePoint" />
            <mxPoint x="600.5500000000001" y="240" as="targetPoint" />
            <Array as="points">
              <mxPoint x="520.5500000000001" y="240" />
            </Array>
          </mxGeometry>
        </mxCell>
        <mxCell id="6DLuC9lkdZeZimnQaC1s-96" value="" style="ellipse;whiteSpace=wrap;html=1;aspect=fixed;fontSize=16;strokeWidth=2;" parent="1" vertex="1">
          <mxGeometry x="535.5500000000001" y="175" width="50.48" height="50.48" as="geometry" />
        </mxCell>
        <mxCell id="6DLuC9lkdZeZimnQaC1s-97" value="" style="endArrow=none;html=1;rounded=0;fontSize=12;startSize=8;endSize=8;curved=1;strokeWidth=2;strokeColor=#FFEB3B;" parent="1" edge="1">
          <mxGeometry width="50" height="50" relative="1" as="geometry">
            <mxPoint x="160.89" y="280" as="sourcePoint" />
            <mxPoint x="240.89" y="280" as="targetPoint" />
          </mxGeometry>
        </mxCell>
        <mxCell id="6DLuC9lkdZeZimnQaC1s-98" value="" style="endArrow=none;html=1;rounded=0;fontSize=12;startSize=8;endSize=8;curved=1;strokeWidth=2;strokeColor=#FFEB3B;" parent="1" edge="1">
          <mxGeometry width="50" height="50" relative="1" as="geometry">
            <mxPoint x="240.89" y="360" as="sourcePoint" />
            <mxPoint x="240.89" y="280" as="targetPoint" />
          </mxGeometry>
        </mxCell>
        <mxCell id="6DLuC9lkdZeZimnQaC1s-99" value="" style="endArrow=none;html=1;rounded=0;fontSize=12;startSize=8;endSize=8;strokeWidth=2;strokeColor=#FFEB3B;" parent="1" edge="1">
          <mxGeometry width="50" height="50" relative="1" as="geometry">
            <mxPoint x="160.89" y="280" as="sourcePoint" />
            <mxPoint x="240.89" y="360" as="targetPoint" />
            <Array as="points">
              <mxPoint x="160.89" y="360" />
            </Array>
          </mxGeometry>
        </mxCell>
        <mxCell id="6DLuC9lkdZeZimnQaC1s-100" value="" style="endArrow=none;html=1;rounded=0;fontSize=12;startSize=8;endSize=8;curved=1;strokeWidth=2;strokeColor=#FFEB3B;" parent="1" edge="1">
          <mxGeometry width="50" height="50" relative="1" as="geometry">
            <mxPoint x="200.89" y="340" as="sourcePoint" />
            <mxPoint x="200.89" y="290" as="targetPoint" />
          </mxGeometry>
        </mxCell>
        <mxCell id="6DLuC9lkdZeZimnQaC1s-101" value="" style="ellipse;whiteSpace=wrap;html=1;aspect=fixed;fontSize=16;strokeWidth=2;strokeColor=#FFEB3B;" parent="1" vertex="1">
          <mxGeometry x="195.89" y="340" width="10" height="10" as="geometry" />
        </mxCell>
        <mxCell id="6DLuC9lkdZeZimnQaC1s-102" value="" style="endArrow=none;html=1;rounded=0;fontSize=12;startSize=8;endSize=8;curved=1;strokeWidth=2;strokeColor=#FFEB3B;" parent="1" edge="1">
          <mxGeometry width="50" height="50" relative="1" as="geometry">
            <mxPoint x="280.89" y="280" as="sourcePoint" />
            <mxPoint x="360.89" y="280" as="targetPoint" />
          </mxGeometry>
        </mxCell>
        <mxCell id="6DLuC9lkdZeZimnQaC1s-103" value="" style="endArrow=none;html=1;rounded=0;fontSize=12;startSize=8;endSize=8;curved=1;strokeWidth=2;strokeColor=#FFEB3B;" parent="1" edge="1">
          <mxGeometry width="50" height="50" relative="1" as="geometry">
            <mxPoint x="360.89" y="360" as="sourcePoint" />
            <mxPoint x="360.89" y="280" as="targetPoint" />
          </mxGeometry>
        </mxCell>
        <mxCell id="6DLuC9lkdZeZimnQaC1s-104" value="" style="endArrow=none;html=1;rounded=0;fontSize=12;startSize=8;endSize=8;strokeWidth=2;strokeColor=#FFEB3B;" parent="1" edge="1">
          <mxGeometry width="50" height="50" relative="1" as="geometry">
            <mxPoint x="280.89" y="280" as="sourcePoint" />
            <mxPoint x="360.89" y="360" as="targetPoint" />
            <Array as="points">
              <mxPoint x="280.89" y="360" />
            </Array>
          </mxGeometry>
        </mxCell>
        <mxCell id="6DLuC9lkdZeZimnQaC1s-105" value="" style="endArrow=none;html=1;rounded=0;fontSize=12;startSize=8;endSize=8;curved=1;strokeWidth=2;strokeColor=#FFEB3B;" parent="1" edge="1">
          <mxGeometry width="50" height="50" relative="1" as="geometry">
            <mxPoint x="350.89" y="330" as="sourcePoint" />
            <mxPoint x="290.89" y="310" as="targetPoint" />
          </mxGeometry>
        </mxCell>
        <mxCell id="6DLuC9lkdZeZimnQaC1s-106" value="" style="endArrow=none;html=1;rounded=0;fontSize=12;startSize=8;endSize=8;curved=1;strokeWidth=2;strokeColor=#FFEB3B;" parent="1" edge="1">
          <mxGeometry width="50" height="50" relative="1" as="geometry">
            <mxPoint x="290.89" y="310" as="sourcePoint" />
            <mxPoint x="350.89" y="290" as="targetPoint" />
          </mxGeometry>
        </mxCell>
        <mxCell id="6DLuC9lkdZeZimnQaC1s-107" value="" style="endArrow=none;html=1;rounded=0;fontSize=12;startSize=8;endSize=8;curved=1;strokeWidth=2;strokeColor=#FFEB3B;" parent="1" edge="1">
          <mxGeometry width="50" height="50" relative="1" as="geometry">
            <mxPoint x="290.89" y="350" as="sourcePoint" />
            <mxPoint x="350.89" y="330" as="targetPoint" />
          </mxGeometry>
        </mxCell>
        <mxCell id="6DLuC9lkdZeZimnQaC1s-108" value="" style="endArrow=none;html=1;rounded=0;fontSize=12;startSize=8;endSize=8;curved=1;strokeWidth=2;strokeColor=#FFEB3B;" parent="1" edge="1">
          <mxGeometry width="50" height="50" relative="1" as="geometry">
            <mxPoint x="400.89" y="280" as="sourcePoint" />
            <mxPoint x="480.89000000000004" y="280" as="targetPoint" />
          </mxGeometry>
        </mxCell>
        <mxCell id="6DLuC9lkdZeZimnQaC1s-109" value="" style="endArrow=none;html=1;rounded=0;fontSize=12;startSize=8;endSize=8;curved=1;strokeWidth=2;strokeColor=#FFEB3B;" parent="1" edge="1">
          <mxGeometry width="50" height="50" relative="1" as="geometry">
            <mxPoint x="480.89000000000004" y="360" as="sourcePoint" />
            <mxPoint x="480.89000000000004" y="280" as="targetPoint" />
          </mxGeometry>
        </mxCell>
        <mxCell id="6DLuC9lkdZeZimnQaC1s-110" value="" style="endArrow=none;html=1;rounded=0;fontSize=12;startSize=8;endSize=8;strokeWidth=2;strokeColor=#FFEB3B;" parent="1" edge="1">
          <mxGeometry width="50" height="50" relative="1" as="geometry">
            <mxPoint x="400.89" y="280" as="sourcePoint" />
            <mxPoint x="480.89000000000004" y="360" as="targetPoint" />
            <Array as="points">
              <mxPoint x="400.89" y="360" />
            </Array>
          </mxGeometry>
        </mxCell>
        <mxCell id="6DLuC9lkdZeZimnQaC1s-111" value="" style="endArrow=none;html=1;rounded=0;fontSize=12;startSize=8;endSize=8;curved=1;strokeWidth=2;strokeColor=#FFEB3B;" parent="1" edge="1">
          <mxGeometry width="50" height="50" relative="1" as="geometry">
            <mxPoint x="440.89" y="320" as="sourcePoint" />
            <mxPoint x="470.89" y="290" as="targetPoint" />
            <Array as="points">
              <mxPoint x="460.89" y="320" />
            </Array>
          </mxGeometry>
        </mxCell>
        <mxCell id="6DLuC9lkdZeZimnQaC1s-112" value="" style="endArrow=none;html=1;rounded=0;fontSize=12;startSize=8;endSize=8;curved=1;strokeWidth=2;strokeColor=#FFEB3B;" parent="1" edge="1">
          <mxGeometry width="50" height="50" relative="1" as="geometry">
            <mxPoint x="440.89" y="350" as="sourcePoint" />
            <mxPoint x="440.89" y="320" as="targetPoint" />
          </mxGeometry>
        </mxCell>
        <mxCell id="6DLuC9lkdZeZimnQaC1s-113" value="" style="endArrow=none;html=1;rounded=0;fontSize=12;startSize=8;endSize=8;curved=1;strokeWidth=2;strokeColor=#FFEB3B;" parent="1" edge="1">
          <mxGeometry width="50" height="50" relative="1" as="geometry">
            <mxPoint x="440.89" y="320" as="sourcePoint" />
            <mxPoint x="410.89" y="290" as="targetPoint" />
            <Array as="points">
              <mxPoint x="420.89" y="320" />
            </Array>
          </mxGeometry>
        </mxCell>
        <mxCell id="6DLuC9lkdZeZimnQaC1s-114" value="" style="endArrow=none;html=1;rounded=0;fontSize=12;startSize=8;endSize=8;curved=1;strokeWidth=2;strokeColor=#FFEB3B;" parent="1" edge="1">
          <mxGeometry width="50" height="50" relative="1" as="geometry">
            <mxPoint x="520.5500000000001" y="280" as="sourcePoint" />
            <mxPoint x="600.5500000000001" y="280" as="targetPoint" />
          </mxGeometry>
        </mxCell>
        <mxCell id="6DLuC9lkdZeZimnQaC1s-115" value="" style="endArrow=none;html=1;rounded=0;fontSize=12;startSize=8;endSize=8;curved=1;strokeWidth=2;strokeColor=#FFEB3B;" parent="1" edge="1">
          <mxGeometry width="50" height="50" relative="1" as="geometry">
            <mxPoint x="600.5500000000001" y="360" as="sourcePoint" />
            <mxPoint x="600.5500000000001" y="280" as="targetPoint" />
          </mxGeometry>
        </mxCell>
        <mxCell id="6DLuC9lkdZeZimnQaC1s-116" value="" style="endArrow=none;html=1;rounded=0;fontSize=12;startSize=8;endSize=8;strokeWidth=2;strokeColor=#FFEB3B;" parent="1" edge="1">
          <mxGeometry width="50" height="50" relative="1" as="geometry">
            <mxPoint x="520.5500000000001" y="280" as="sourcePoint" />
            <mxPoint x="600.5500000000001" y="360" as="targetPoint" />
            <Array as="points">
              <mxPoint x="520.5500000000001" y="360" />
            </Array>
          </mxGeometry>
        </mxCell>
        <mxCell id="6DLuC9lkdZeZimnQaC1s-117" value="" style="ellipse;whiteSpace=wrap;html=1;aspect=fixed;fontSize=16;strokeWidth=2;strokeColor=#FFEB3B;" parent="1" vertex="1">
          <mxGeometry x="535.5500000000001" y="295" width="50.48" height="50.48" as="geometry" />
        </mxCell>
        <mxCell id="6DLuC9lkdZeZimnQaC1s-118" value="" style="endArrow=none;html=1;rounded=0;fontSize=12;startSize=8;endSize=8;curved=1;strokeWidth=2;strokeColor=#FFEB3B;" parent="1" edge="1">
          <mxGeometry width="50" height="50" relative="1" as="geometry">
            <mxPoint x="640" y="280.24" as="sourcePoint" />
            <mxPoint x="720" y="280.24" as="targetPoint" />
          </mxGeometry>
        </mxCell>
        <mxCell id="6DLuC9lkdZeZimnQaC1s-119" value="" style="endArrow=none;html=1;rounded=0;fontSize=12;startSize=8;endSize=8;curved=1;strokeWidth=2;strokeColor=#FFEB3B;" parent="1" edge="1">
          <mxGeometry width="50" height="50" relative="1" as="geometry">
            <mxPoint x="720" y="360.24" as="sourcePoint" />
            <mxPoint x="720" y="280.24" as="targetPoint" />
          </mxGeometry>
        </mxCell>
        <mxCell id="6DLuC9lkdZeZimnQaC1s-120" value="" style="endArrow=none;html=1;rounded=0;fontSize=12;startSize=8;endSize=8;strokeWidth=2;strokeColor=#FFEB3B;" parent="1" edge="1">
          <mxGeometry width="50" height="50" relative="1" as="geometry">
            <mxPoint x="640" y="280.24" as="sourcePoint" />
            <mxPoint x="720" y="360.24" as="targetPoint" />
            <Array as="points">
              <mxPoint x="640" y="360.24" />
            </Array>
          </mxGeometry>
        </mxCell>
        <mxCell id="6DLuC9lkdZeZimnQaC1s-121" value="" style="endArrow=none;html=1;rounded=0;fontSize=12;startSize=8;endSize=8;curved=1;strokeWidth=2;strokeColor=#FFEB3B;" parent="1" edge="1">
          <mxGeometry width="50" height="50" relative="1" as="geometry">
            <mxPoint x="650" y="340" as="sourcePoint" />
            <mxPoint x="650" y="300" as="targetPoint" />
          </mxGeometry>
        </mxCell>
        <mxCell id="6DLuC9lkdZeZimnQaC1s-122" value="" style="endArrow=none;html=1;rounded=0;fontSize=12;startSize=8;endSize=8;curved=1;strokeWidth=2;strokeColor=#FFEB3B;" parent="1" edge="1">
          <mxGeometry width="50" height="50" relative="1" as="geometry">
            <mxPoint x="680" y="300" as="sourcePoint" />
            <mxPoint x="710" y="290.24" as="targetPoint" />
          </mxGeometry>
        </mxCell>
        <mxCell id="6DLuC9lkdZeZimnQaC1s-123" value="" style="endArrow=none;html=1;rounded=0;fontSize=12;startSize=8;endSize=8;curved=1;strokeWidth=2;strokeColor=#FFEB3B;" parent="1" edge="1">
          <mxGeometry width="50" height="50" relative="1" as="geometry">
            <mxPoint x="680" y="300" as="sourcePoint" />
            <mxPoint x="650" y="300.24" as="targetPoint" />
          </mxGeometry>
        </mxCell>
        <mxCell id="6DLuC9lkdZeZimnQaC1s-124" value="" style="endArrow=none;html=1;rounded=0;fontSize=12;startSize=8;endSize=8;curved=1;strokeWidth=2;strokeColor=#FFEB3B;" parent="1" edge="1">
          <mxGeometry width="50" height="50" relative="1" as="geometry">
            <mxPoint x="680" y="340" as="sourcePoint" />
            <mxPoint x="650" y="340" as="targetPoint" />
          </mxGeometry>
        </mxCell>
        <mxCell id="6DLuC9lkdZeZimnQaC1s-125" value="" style="endArrow=none;html=1;rounded=0;fontSize=12;startSize=8;endSize=8;curved=1;strokeWidth=2;strokeColor=#FFEB3B;" parent="1" edge="1">
          <mxGeometry width="50" height="50" relative="1" as="geometry">
            <mxPoint x="680" y="340.24" as="sourcePoint" />
            <mxPoint x="680" y="300.24" as="targetPoint" />
          </mxGeometry>
        </mxCell>
        <mxCell id="6DLuC9lkdZeZimnQaC1s-126" value="" style="endArrow=none;html=1;rounded=0;fontSize=12;startSize=8;endSize=8;curved=1;strokeWidth=2;strokeColor=#FFEB3B;" parent="1" edge="1">
          <mxGeometry width="50" height="50" relative="1" as="geometry">
            <mxPoint x="680" y="340.48" as="sourcePoint" />
            <mxPoint x="710" y="350.24" as="targetPoint" />
          </mxGeometry>
        </mxCell>
        <mxCell id="6DLuC9lkdZeZimnQaC1s-127" value="" style="endArrow=none;html=1;rounded=0;fontSize=12;startSize=8;endSize=8;curved=1;strokeWidth=2;strokeColor=#FFEB3B;" parent="1" edge="1">
          <mxGeometry width="50" height="50" relative="1" as="geometry">
            <mxPoint x="710" y="350" as="sourcePoint" />
            <mxPoint x="710" y="290" as="targetPoint" />
          </mxGeometry>
        </mxCell>
        <mxCell id="6DLuC9lkdZeZimnQaC1s-128" value="" style="endArrow=none;html=1;rounded=0;fontSize=12;startSize=8;endSize=8;curved=1;strokeWidth=2;strokeColor=#FFEB3B;" parent="1" edge="1">
          <mxGeometry width="50" height="50" relative="1" as="geometry">
            <mxPoint x="759.9" y="280.24" as="sourcePoint" />
            <mxPoint x="839.9" y="280.24" as="targetPoint" />
          </mxGeometry>
        </mxCell>
        <mxCell id="6DLuC9lkdZeZimnQaC1s-129" value="" style="endArrow=none;html=1;rounded=0;fontSize=12;startSize=8;endSize=8;curved=1;strokeWidth=2;strokeColor=#FFEB3B;" parent="1" edge="1">
          <mxGeometry width="50" height="50" relative="1" as="geometry">
            <mxPoint x="839.9" y="360.24" as="sourcePoint" />
            <mxPoint x="839.9" y="280.24" as="targetPoint" />
          </mxGeometry>
        </mxCell>
        <mxCell id="6DLuC9lkdZeZimnQaC1s-130" value="" style="endArrow=none;html=1;rounded=0;fontSize=12;startSize=8;endSize=8;strokeWidth=2;strokeColor=#FFEB3B;" parent="1" edge="1">
          <mxGeometry width="50" height="50" relative="1" as="geometry">
            <mxPoint x="759.9" y="280.24" as="sourcePoint" />
            <mxPoint x="839.9" y="360.24" as="targetPoint" />
            <Array as="points">
              <mxPoint x="759.9" y="360.24" />
            </Array>
          </mxGeometry>
        </mxCell>
        <mxCell id="6DLuC9lkdZeZimnQaC1s-131" value="" style="ellipse;whiteSpace=wrap;html=1;aspect=fixed;fontSize=16;strokeWidth=2;strokeColor=#FFEB3B;" parent="1" vertex="1">
          <mxGeometry x="774.9" y="295.24" width="50.48" height="50.48" as="geometry" />
        </mxCell>
        <mxCell id="6DLuC9lkdZeZimnQaC1s-132" value="" style="endArrow=none;html=1;rounded=0;fontSize=12;startSize=8;endSize=8;curved=1;entryX=0;entryY=0;entryDx=0;entryDy=0;exitX=1;exitY=1;exitDx=0;exitDy=0;strokeWidth=2;strokeColor=#FFEB3B;" parent="1" source="6DLuC9lkdZeZimnQaC1s-131" target="6DLuC9lkdZeZimnQaC1s-131" edge="1">
          <mxGeometry width="50" height="50" relative="1" as="geometry">
            <mxPoint x="799.9399999999999" y="335.48" as="sourcePoint" />
            <mxPoint x="799.9399999999999" y="305.48" as="targetPoint" />
          </mxGeometry>
        </mxCell>
        <mxCell id="6DLuC9lkdZeZimnQaC1s-133" value="" style="endArrow=none;html=1;rounded=0;fontSize=12;startSize=8;endSize=8;curved=1;entryX=0.158;entryY=0.861;entryDx=0;entryDy=0;exitX=0.864;exitY=0.161;exitDx=0;exitDy=0;exitPerimeter=0;entryPerimeter=0;strokeWidth=2;strokeColor=#FFEB3B;" parent="1" source="6DLuC9lkdZeZimnQaC1s-131" target="6DLuC9lkdZeZimnQaC1s-131" edge="1">
          <mxGeometry width="50" height="50" relative="1" as="geometry">
            <mxPoint x="818.14" y="304.24" as="sourcePoint" />
            <mxPoint x="782.14" y="340.24" as="targetPoint" />
          </mxGeometry>
        </mxCell>
        <mxCell id="6DLuC9lkdZeZimnQaC1s-134" value="" style="endArrow=none;html=1;rounded=0;fontSize=12;startSize=8;endSize=8;curved=1;strokeWidth=2;strokeColor=#1A1A1A;" parent="1" edge="1">
          <mxGeometry width="50" height="50" relative="1" as="geometry">
            <mxPoint x="879.66" y="60" as="sourcePoint" />
            <mxPoint x="959.66" y="60" as="targetPoint" />
          </mxGeometry>
        </mxCell>
        <mxCell id="6DLuC9lkdZeZimnQaC1s-135" value="" style="endArrow=none;html=1;rounded=0;fontSize=12;startSize=8;endSize=8;curved=1;strokeWidth=2;strokeColor=#1A1A1A;" parent="1" edge="1">
          <mxGeometry width="50" height="50" relative="1" as="geometry">
            <mxPoint x="959.66" y="160" as="sourcePoint" />
            <mxPoint x="959.66" y="60" as="targetPoint" />
          </mxGeometry>
        </mxCell>
        <mxCell id="6DLuC9lkdZeZimnQaC1s-136" value="" style="endArrow=none;html=1;rounded=0;fontSize=12;startSize=8;endSize=8;strokeWidth=2;strokeColor=#1A1A1A;" parent="1" edge="1">
          <mxGeometry width="50" height="50" relative="1" as="geometry">
            <mxPoint x="879.66" y="60" as="sourcePoint" />
            <mxPoint x="959.66" y="160" as="targetPoint" />
            <Array as="points">
              <mxPoint x="879.66" y="160" />
            </Array>
          </mxGeometry>
        </mxCell>
        <mxCell id="6DLuC9lkdZeZimnQaC1s-137" value="" style="endArrow=none;html=1;rounded=0;fontSize=12;startSize=8;endSize=8;curved=1;strokeWidth=2;strokeColor=#1A1A1A;" parent="1" edge="1">
          <mxGeometry width="50" height="50" relative="1" as="geometry">
            <mxPoint x="879.66" y="60" as="sourcePoint" />
            <mxPoint x="959.66" y="60" as="targetPoint" />
            <Array as="points">
              <mxPoint x="919.66" y="10" />
            </Array>
          </mxGeometry>
        </mxCell>
        <mxCell id="6DLuC9lkdZeZimnQaC1s-138" value="" style="rounded=0;whiteSpace=wrap;html=1;fontSize=16;strokeWidth=2;strokeColor=#1A1A1A;" parent="1" vertex="1">
          <mxGeometry x="909.66" y="16" width="20" height="20" as="geometry" />
        </mxCell>
        <mxCell id="6DLuC9lkdZeZimnQaC1s-139" value="" style="endArrow=none;html=1;rounded=0;fontSize=12;startSize=8;endSize=8;curved=1;strokeWidth=2;strokeColor=#FFEB3B;" parent="1" edge="1">
          <mxGeometry width="50" height="50" relative="1" as="geometry">
            <mxPoint x="1140" y="280.07000000000005" as="sourcePoint" />
            <mxPoint x="1140" y="360.07000000000005" as="targetPoint" />
          </mxGeometry>
        </mxCell>
        <mxCell id="6DLuC9lkdZeZimnQaC1s-140" value="" style="endArrow=none;html=1;rounded=0;fontSize=12;startSize=8;endSize=8;curved=1;strokeWidth=2;strokeColor=#FFEB3B;" parent="1" edge="1">
          <mxGeometry width="50" height="50" relative="1" as="geometry">
            <mxPoint x="1040" y="360.07000000000005" as="sourcePoint" />
            <mxPoint x="1140" y="360.07000000000005" as="targetPoint" />
          </mxGeometry>
        </mxCell>
        <mxCell id="6DLuC9lkdZeZimnQaC1s-141" value="" style="endArrow=none;html=1;rounded=0;fontSize=12;startSize=8;endSize=8;strokeWidth=2;strokeColor=#FFEB3B;" parent="1" edge="1">
          <mxGeometry width="50" height="50" relative="1" as="geometry">
            <mxPoint x="1140" y="280.07000000000005" as="sourcePoint" />
            <mxPoint x="1040" y="360.07000000000005" as="targetPoint" />
            <Array as="points">
              <mxPoint x="1040" y="280.07000000000005" />
            </Array>
          </mxGeometry>
        </mxCell>
        <mxCell id="6DLuC9lkdZeZimnQaC1s-142" value="" style="endArrow=none;html=1;rounded=0;fontSize=12;startSize=8;endSize=8;curved=1;strokeWidth=2;strokeColor=#FFEB3B;" parent="1" edge="1">
          <mxGeometry width="50" height="50" relative="1" as="geometry">
            <mxPoint x="1140" y="360.07000000000016" as="sourcePoint" />
            <mxPoint x="1140" y="280.07000000000016" as="targetPoint" />
            <Array as="points">
              <mxPoint x="1190" y="320.07000000000016" />
            </Array>
          </mxGeometry>
        </mxCell>
        <mxCell id="6DLuC9lkdZeZimnQaC1s-143" value="" style="endArrow=none;html=1;rounded=0;fontSize=12;startSize=8;endSize=8;curved=1;strokeWidth=2;strokeColor=#FFEB3B;" parent="1" edge="1">
          <mxGeometry width="50" height="50" relative="1" as="geometry">
            <mxPoint x="1040" y="359.72000000000014" as="sourcePoint" />
            <mxPoint x="1040" y="279.72000000000014" as="targetPoint" />
            <Array as="points">
              <mxPoint x="990" y="319.72000000000014" />
            </Array>
          </mxGeometry>
        </mxCell>
        <mxCell id="6DLuC9lkdZeZimnQaC1s-144" value="" style="endArrow=none;html=1;rounded=0;fontSize=12;startSize=8;endSize=8;curved=1;strokeWidth=2;strokeColor=#1A1A1A;" parent="1" edge="1">
          <mxGeometry width="50" height="50" relative="1" as="geometry">
            <mxPoint x="1241" y="188.67000000000002" as="sourcePoint" />
            <mxPoint x="1271" y="178.91000000000003" as="targetPoint" />
          </mxGeometry>
        </mxCell>
        <mxCell id="6DLuC9lkdZeZimnQaC1s-145" value="" style="endArrow=none;html=1;rounded=0;fontSize=12;startSize=8;endSize=8;curved=1;strokeWidth=2;strokeColor=#1A1A1A;" parent="1" edge="1">
          <mxGeometry width="50" height="50" relative="1" as="geometry">
            <mxPoint x="1241" y="228.91000000000003" as="sourcePoint" />
            <mxPoint x="1241" y="188.91000000000003" as="targetPoint" />
          </mxGeometry>
        </mxCell>
        <mxCell id="6DLuC9lkdZeZimnQaC1s-146" value="" style="endArrow=none;html=1;rounded=0;fontSize=12;startSize=8;endSize=8;curved=1;strokeWidth=2;strokeColor=#1A1A1A;" parent="1" edge="1">
          <mxGeometry width="50" height="50" relative="1" as="geometry">
            <mxPoint x="1241" y="229.15000000000003" as="sourcePoint" />
            <mxPoint x="1271" y="238.91000000000003" as="targetPoint" />
          </mxGeometry>
        </mxCell>
        <mxCell id="6DLuC9lkdZeZimnQaC1s-147" value="" style="endArrow=none;html=1;rounded=0;fontSize=12;startSize=8;endSize=8;curved=1;strokeWidth=2;strokeColor=#1A1A1A;" parent="1" edge="1">
          <mxGeometry width="50" height="50" relative="1" as="geometry">
            <mxPoint x="1271" y="238.67000000000002" as="sourcePoint" />
            <mxPoint x="1271" y="178.67000000000002" as="targetPoint" />
          </mxGeometry>
        </mxCell>
        <mxCell id="6DLuC9lkdZeZimnQaC1s-148" value="" style="sketch=0;pointerEvents=1;shadow=0;dashed=0;html=1;strokeColor=none;labelPosition=center;verticalLabelPosition=bottom;verticalAlign=top;align=center;outlineConnect=0;shape=mxgraph.vvd.cloud_computing;fillColor=#2196F3;fontSize=16;rotation=89;gradientColor=none;fillStyle=auto;strokeWidth=1;" parent="1" vertex="1">
          <mxGeometry x="1275.87" y="175.00000000000006" width="60.75" height="70.9" as="geometry" />
        </mxCell>
        <mxCell id="6s6yGHimKZyDQ5-AUjle-1" value="" style="rounded=0;whiteSpace=wrap;html=1;fillColor=#f70af7;strokeColor=#f70af7;" vertex="1" parent="1">
          <mxGeometry x="94" y="444" width="14" height="30" as="geometry" />
        </mxCell>
        <mxCell id="6s6yGHimKZyDQ5-AUjle-2" value="&lt;font color=&quot;#ffffff&quot;&gt;X&lt;/font&gt;" style="text;strokeColor=none;fillColor=none;html=1;align=center;verticalAlign=middle;whiteSpace=wrap;rounded=0;fontSize=16;" vertex="1" parent="1">
          <mxGeometry x="84" y="445" width="16" height="28" as="geometry" />
        </mxCell>
        <mxCell id="6s6yGHimKZyDQ5-AUjle-3" value="" style="rounded=0;whiteSpace=wrap;html=1;strokeColor=#f70af7;fillColor=#000000;" vertex="1" parent="1">
          <mxGeometry x="108" y="444" width="80" height="30" as="geometry" />
        </mxCell>
      </root>
    </mxGraphModel>
  </diagram>
  <diagram id="FI_qKLbxQvZf7Ev0OfKK" name="Страница — 2">
    <mxGraphModel dx="2074" dy="1230" grid="0" gridSize="10" guides="1" tooltips="1" connect="1" arrows="1" fold="1" page="1" pageScale="1" pageWidth="1169" pageHeight="827" background="#E6E6E6" math="0" shadow="0">
      <root>
        <mxCell id="0" />
        <mxCell id="1" parent="0" />
        <mxCell id="LK3XcQhDsRWnrCjrP8GK-3" value="" style="html=1;shadow=0;dashed=0;align=center;verticalAlign=middle;shape=mxgraph.arrows2.arrow;dy=0.6;dx=40;direction=north;notch=0;fontSize=16;rotation=90;fillColor=#CCCC00;strokeColor=#CCCC00;" parent="1" vertex="1">
          <mxGeometry x="138.5" y="180.5" width="14" height="49" as="geometry" />
        </mxCell>
        <mxCell id="LK3XcQhDsRWnrCjrP8GK-5" value="" style="shape=corner;whiteSpace=wrap;html=1;fontSize=16;direction=south;dx=6;dy=6;fillColor=#CCCC00;strokeColor=#CCCC00;" parent="1" vertex="1">
          <mxGeometry x="121" y="202" width="95" height="70" as="geometry" />
        </mxCell>
        <mxCell id="LK3XcQhDsRWnrCjrP8GK-6" value="" style="shape=corner;whiteSpace=wrap;html=1;fontSize=16;direction=north;dx=6;dy=6;fillColor=#CCCC00;strokeColor=#CCCC00;" parent="1" vertex="1">
          <mxGeometry x="210" y="220" width="164" height="70" as="geometry" />
        </mxCell>
        <mxCell id="LK3XcQhDsRWnrCjrP8GK-9" value="" style="shape=corner;whiteSpace=wrap;html=1;fontSize=16;direction=west;dx=6;dy=6;flipH=1;fillColor=#CCCC00;strokeColor=#CCCC00;" parent="1" vertex="1">
          <mxGeometry x="374" y="285" width="135" height="202" as="geometry" />
        </mxCell>
        <mxCell id="LK3XcQhDsRWnrCjrP8GK-10" value="" style="html=1;shadow=0;dashed=0;align=center;verticalAlign=middle;shape=mxgraph.arrows2.arrow;dy=0.6;dx=40;direction=north;notch=0;fontSize=16;rotation=90;fillColor=#CCCC00;strokeColor=#CCCC00;" parent="1" vertex="1">
          <mxGeometry x="770" y="170" width="14" height="70" as="geometry" />
        </mxCell>
        <mxCell id="LK3XcQhDsRWnrCjrP8GK-11" value="" style="shape=corner;whiteSpace=wrap;html=1;fontSize=16;direction=south;dx=6;dy=6;flipH=1;fillColor=#CCCC00;strokeColor=#CCCC00;" parent="1" vertex="1">
          <mxGeometry x="714" y="202" width="100" height="70" as="geometry" />
        </mxCell>
        <mxCell id="LK3XcQhDsRWnrCjrP8GK-12" value="" style="shape=corner;whiteSpace=wrap;html=1;fontSize=16;direction=north;dx=6;dy=6;flipH=1;fillColor=#CCCC00;strokeColor=#CCCC00;" parent="1" vertex="1">
          <mxGeometry x="643" y="220" width="77" height="70" as="geometry" />
        </mxCell>
        <mxCell id="LK3XcQhDsRWnrCjrP8GK-13" value="" style="shape=corner;whiteSpace=wrap;html=1;fontSize=16;direction=west;dx=6;dy=6;flipH=0;fillColor=#CCCC00;strokeColor=#CCCC00;" parent="1" vertex="1">
          <mxGeometry x="538" y="284" width="108" height="94" as="geometry" />
        </mxCell>
        <mxCell id="LK3XcQhDsRWnrCjrP8GK-16" value="" style="shape=corner;whiteSpace=wrap;html=1;fontSize=16;direction=north;dx=6;dy=6;flipV=1;fillColor=#CCCC00;strokeColor=#CCCC00;" parent="1" vertex="1">
          <mxGeometry x="210" y="243" width="506" height="10" as="geometry" />
        </mxCell>
        <mxCell id="LK3XcQhDsRWnrCjrP8GK-17" value="" style="shape=corner;whiteSpace=wrap;html=1;fontSize=16;direction=north;dx=6;dy=6;flipV=1;fillColor=#CCCC00;strokeColor=#CCCC00;" parent="1" vertex="1">
          <mxGeometry x="210" y="481" width="169" height="10" as="geometry" />
        </mxCell>
        <mxCell id="LK3XcQhDsRWnrCjrP8GK-19" value="" style="html=1;shadow=0;dashed=0;align=center;verticalAlign=middle;shape=mxgraph.arrows2.arrow;dy=0.6;dx=40;direction=north;notch=0;fontSize=16;rotation=-180;fillColor=#CCCC00;strokeColor=#CCCC00;" parent="1" vertex="1">
          <mxGeometry x="206" y="491" width="14" height="54" as="geometry" />
        </mxCell>
        <mxCell id="LK3XcQhDsRWnrCjrP8GK-20" value="" style="html=1;shadow=0;dashed=0;align=center;verticalAlign=middle;shape=mxgraph.arrows2.arrow;dy=0.6;dx=40;direction=north;notch=0;fontSize=16;rotation=-180;flipV=1;fillColor=#CCCC00;strokeColor=#CCCC00;" parent="1" vertex="1">
          <mxGeometry x="710" y="493" width="14" height="54" as="geometry" />
        </mxCell>
        <mxCell id="LK3XcQhDsRWnrCjrP8GK-18" value="" style="shape=corner;whiteSpace=wrap;html=1;fontSize=16;direction=north;dx=6;dy=6;flipV=1;flipH=1;fillColor=#CCCC00;strokeColor=#CCCC00;" parent="1" vertex="1">
          <mxGeometry x="503" y="481" width="217" height="28" as="geometry" />
        </mxCell>
        <mxCell id="GwoX2HhR9zuBdWBeCqvx-1" value="" style="shape=corner;whiteSpace=wrap;html=1;fontSize=16;direction=east;dx=6;dy=6;flipH=0;fillColor=#CCCC00;strokeColor=#CCCC00;" parent="1" vertex="1">
          <mxGeometry x="535" y="372" width="108" height="112" as="geometry" />
        </mxCell>
        <mxCell id="GwoX2HhR9zuBdWBeCqvx-2" value="" style="shape=corner;whiteSpace=wrap;html=1;fontSize=16;direction=west;dx=6;dy=6;flipH=1;fillColor=#CCCC00;strokeColor=#CCCC00;" parent="1" vertex="1">
          <mxGeometry x="274" y="284" width="104" height="164" as="geometry" />
        </mxCell>
      </root>
    </mxGraphModel>
  </diagram>
</mxfile>
